<?xml version="1.0" standalone="no"?><!DOCTYPE svg PUBLIC "-//W3C//DTD SVG 1.1//EN" "http://www.w3.org/Graphics/SVG/1.1/DTD/svg11.dtd"><svg t="1644564920846" class="icon" viewBox="0 0 1024 1024" version="1.1" xmlns="http://www.w3.org/2000/svg" p-id="16542" xmlns:xlink="http://www.w3.org/1999/xlink" width="32" height="32"><defs><style type="text/css"></style></defs><path d="M198.692801 198.692801c-172.756962 172.756962-172.756962 453.846147 0 626.608753 172.756962 172.756962 453.857436 172.756962 626.614398 0s172.756962-453.846147 0-626.608753c-172.756962-172.756962-453.857436-172.756962-626.614398 0z" fill="#696065" p-id="16543"></path><path d="M675.562297 408.155044c62.206504 62.20086 152.990409 78.671106 230.436689 49.580068-10.459001-76.582692-43.117275-150.681865-98.059486-211.73692L660.672473 393.265219l14.889824 14.889825zM628.742322 361.335068l147.114629-147.114629c-60.643016-53.80205-133.889891-85.878955-209.592063-96.21378-29.091037 77.440635-12.620792 168.235828 49.580068 230.436688l12.897366 12.891721z" fill="#FBB01F" p-id="16544"></path><path d="M596.812171 393.265219l-12.897366-12.897365C512.095954 308.543358 490.70947 205.127373 519.665042 114.439422c-97.399096-1.862639-195.328762 31.659222-272.594421 100.695403l263.930327 263.935972 85.811223-85.805578zM380.367854 583.914805l12.89172 12.897366 85.811223-85.811223-263.930327-263.935972c-69.036181 77.26566-102.558042 175.20097-100.695403 272.600066 90.682306-28.955573 194.098291-7.569088 265.922787 64.249763z" fill="#FBB01F" p-id="16545"></path><path d="M348.437703 615.839312c-62.20086-62.20086-152.996053-78.671106-230.436689-49.574424 10.334825 75.702172 42.41173 148.949046 96.21378 209.592063l147.114629-147.114629-12.89172-12.90301zM393.259574 660.666828l-147.267026 147.272672c61.055055 54.942211 135.154228 87.600485 211.742564 98.059486 29.091037-77.446279 12.615147-168.241473-49.585713-230.436689l-14.889825-14.895469z" fill="#FBB01F" p-id="16546"></path><path d="M425.19537 628.742322l14.889825 14.895469c71.83014 71.824496 93.216624 175.240481 64.249763 265.922787 97.399096 1.862639 195.334406-31.659222 272.600066-100.695403L511.000948 542.925455l-85.805578 85.816867zM643.632146 440.07955l-14.895469-14.889825-85.811222 85.811223 265.934075 265.922787c69.030537-77.260015 102.558042-175.195326 100.695403-272.594422-90.682306 28.961217-194.098291 7.580377-265.922787-64.249763z" fill="#FBB01F" p-id="16547"></path></svg>