<?xml version="1.0" standalone="no"?><!DOCTYPE svg PUBLIC "-//W3C//DTD SVG 1.1//EN" "http://www.w3.org/Graphics/SVG/1.1/DTD/svg11.dtd"><svg t="1646301150343" class="icon" viewBox="0 0 1024 1024" version="1.1" xmlns="http://www.w3.org/2000/svg" p-id="52191" xmlns:xlink="http://www.w3.org/1999/xlink" width="16" height="16"><defs><style type="text/css"></style></defs><path d="M950.097997 772.918L702.295687 529.385938c58.649654-132.018515 31.095143-286.114818-71.570916-389.510493C565.051157 73.809905 477.780709 37.407907 384.918927 37.407907c-38.314554 0-76.09392 6.318903-112.245209 18.67837-19.40901 6.600312-33.790526 22.639581-38.508982 42.891794-4.859671 20.812983 1.15224 42.274741 16.124204 57.38485l148.448686 149.434129-15.813119 79.631483-78.762697 15.842794-148.253236-149.236631c-11.545941-11.628828-26.909829-17.977407-43.258136-17.977407-25.870152 0-48.760443 16.26542-56.906968 40.449167-47.159995 139.714786-1.320062 295.439165 114.123996 387.572354 60.110933 48.003198 136.344022 74.435144 214.658512 74.435145 49.015246 0 97.693824-10.365048 141.961962-30.110725L774.231922 949.935292c23.511436 23.622976 54.774401 36.656801 88.058393 36.656801 33.286037 0 64.549003-13.033825 88.060438-36.714106 48.366471-48.705184 48.366471-127.972371-0.252756-176.959987z m-40.590382 136.457609c-25.2531 25.504833-68.986049 25.673678-94.68838-0.252757l-277.376824-272.577527-18.538178 9.719343c-41.011984 21.374777-87.471016 32.751873-134.378255 32.751873-65.307271 0-128.818643-21.965224-178.759979-61.851573-96.56819-77.105968-134.966655-207.438078-95.50293-324.288156l4.804413-0.279362 170.105896 171.229484 146.680417-29.549954 29.326874-147.298493-170.024032-171.202878c-1.348715-1.321086-1.123588-3.034097 0.167822-5.28025 30.139377-10.309789 61.628493-15.533757 93.594468-15.533757 77.412959 0 150.192397 30.335852 204.964752 85.44692 90.052812 90.698517 110.95073 228.053564 52.02069 341.842939l-9.773578 18.876892 277.377847 272.574457c26.17919 26.348035 26.17919 69.296111-0.001023 95.672799z" p-id="52192" fill="#ffffff"></path></svg>