<?xml version="1.0" standalone="no"?><!DOCTYPE svg PUBLIC "-//W3C//DTD SVG 1.1//EN" "http://www.w3.org/Graphics/SVG/1.1/DTD/svg11.dtd"><svg t="1646300295510" class="icon" viewBox="0 0 1024 1024" version="1.1" xmlns="http://www.w3.org/2000/svg" p-id="2375" xmlns:xlink="http://www.w3.org/1999/xlink" width="16" height="16"><defs><style type="text/css"></style></defs><path d="M175.228121 698.709333a468.557576 468.557576 0 0 0 299.380364 138.115879v118.784H394.457212c-0.465455 0-0.837818-0.217212-1.303273-0.217212a31.247515 31.247515 0 0 0 2.544485 62.49503c0.310303 0 0.558545-0.186182 0.868849-0.217212h215.04c0.434424 0 0.837818 0.248242 1.303272 0.217212a31.278545 31.278545 0 1 0-2.544484-62.49503c-0.310303 0.03103-0.558545 0.217212-0.868849 0.217212h-72.828121v-118.287515c118.721939-6.361212 229.034667-55.637333 312.785454-141.436121a31.030303 31.030303 0 0 0-23.117575-53.279031 30.968242 30.968242 0 0 0-22.000485 10.581334 407.924364 407.924364 0 0 1-293.546667 123.345454A407.769212 407.769212 0 0 1 215.660606 651.636364l-0.310303 0.341333a30.72 30.72 0 0 0-23.241697-9.309091 31.216485 31.216485 0 0 0-29.913212 32.488727 30.72 30.72 0 0 0 13.063758 23.583031" p-id="2376" fill="#ffffff"></path><path d="M330.379636 250.352485a172.838788 172.838788 0 0 1 172.652606-172.652606 172.838788 172.838788 0 0 1 172.683637 172.652606v230.741333a172.838788 172.838788 0 0 1-172.683637 172.652606 172.838788 172.838788 0 0 1-172.652606-172.652606V250.352485z m172.652606 465.454545c129.427394 0 234.744242-105.316848 234.744243-234.713212V250.352485c0-129.396364-105.285818-234.713212-234.744243-234.713212-129.396364 0-234.713212 105.285818-234.713212 234.713212v230.741333c0 129.396364 105.285818 234.713212 234.713212 234.713212z" p-id="2377" fill="#ffffff"></path></svg>