<?xml version="1.0" standalone="no"?><!DOCTYPE svg PUBLIC "-//W3C//DTD SVG 1.1//EN" "http://www.w3.org/Graphics/SVG/1.1/DTD/svg11.dtd"><svg t="1646300708293" class="icon" viewBox="0 0 1024 1024" version="1.1" xmlns="http://www.w3.org/2000/svg" p-id="36480" xmlns:xlink="http://www.w3.org/1999/xlink" width="16" height="16"><defs><style type="text/css"></style></defs><path d="M477 974H108.8c-13.8 0-25-11.2-25-25V75c0-13.8 11.2-25 25-25h750c13.8 0 25 11.2 25 25v469h50V50c0-27.6-22.4-50-50-50h-800c-27.6 0-50 22.4-50 50v924c0 27.6 22.4 50 50 50H477v-50z" p-id="36481" fill="#ffffff"></path><path d="M909 542m-25 0a25 25 0 1 0 50 0 25 25 0 1 0-50 0Z" p-id="36482" fill="#ffffff"></path><path d="M482 999m-25 0a25 25 0 1 0 50 0 25 25 0 1 0-50 0Z" p-id="36483" fill="#ffffff"></path><path d="M767 249H169c-13.7 0-25-11.2-25-25 0-13.7 11.2-25 25-25h598c13.8 0 25 11.2 25 25s-11.2 25-25 25zM767 510.5H169c-13.7 0-25-11.3-25-25s11.2-25 25-25h598c13.8 0 25 11.3 25 25 0 13.8-11.2 25-25 25zM474 772H184c-13.7 0-25-11.3-25-25 0-13.8 11.2-25 25-25h290c13.7 0 25 11.3 25 25 0 13.8-11.2 25-25 25zM895.8 1014.9l-97.5-110.8c-9.1-10.3-8.1-26.2 2.2-35.3 10.3-9.1 26.2-8.1 35.3 2.2l97.5 110.8c9.1 10.3 8.1 26.2-2.2 35.3-10.3 9.1-26.2 8.1-35.3-2.2z" p-id="36484" fill="#ffffff"></path><path d="M795.7 600.7C708 560 604 598.1 563.3 685.8c-40.7 87.7-2.6 191.7 85.1 232.4 87.7 40.7 191.7 2.6 232.4-85.1 40.7-87.7 2.6-191.8-85.1-232.4zM669.5 872.8c-62.6-29-89.8-103.4-60.8-166S712 617 774.7 646c62.6 29 89.8 103.4 60.8 166-29.1 62.6-103.4 89.9-166 60.8z" p-id="36485" fill="#ffffff"></path></svg>